<svg width="56" height="56" viewBox="0 0 56 56" fill="none" xmlns="http://www.w3.org/2000/svg">
<rect x="4" y="4" width="48" height="48" rx="24" fill="#FAF8F6"/>
<g clip-path="url(#clip0_42_5681)">
<path d="M33.5013 21.5834H22.5013C21.4888 21.5834 20.668 22.4042 20.668 23.4167V34.4167C20.668 35.4292 21.4888 36.25 22.5013 36.25H33.5013C34.5138 36.25 35.3346 35.4292 35.3346 34.4167V23.4167C35.3346 22.4042 34.5138 21.5834 33.5013 21.5834Z" stroke="#3F3A64" stroke-width="2" stroke-linecap="round" stroke-linejoin="round"/>
<path d="M31.668 19.75V23.4167" stroke="#3F3A64" stroke-width="2" stroke-linecap="round" stroke-linejoin="round"/>
<path d="M24.332 19.75V23.4167" stroke="#3F3A64" stroke-width="2" stroke-linecap="round" stroke-linejoin="round"/>
<path d="M20.668 27.0834H35.3346" stroke="#3F3A64" stroke-width="2" stroke-linecap="round" stroke-linejoin="round"/>
<path d="M26.1654 30.75H24.332V32.5833H26.1654V30.75Z" stroke="#20AD96" stroke-linecap="round" stroke-linejoin="round"/>
</g>
<rect x="4" y="4" width="48" height="48" rx="24" stroke="#FAF8F6" stroke-width="8"/>
<defs>
<clipPath id="clip0_42_5681">
<rect width="22" height="22" fill="white" transform="translate(17 17)"/>
</clipPath>
</defs>
</svg>
