<svg width="56" height="56" viewBox="0 0 56 56" fill="none" xmlns="http://www.w3.org/2000/svg">
<rect x="4" y="4" width="48" height="48" rx="24" fill="#FAF8F6"/>
<g clip-path="url(#clip0_42_5693)">
<path d="M27.9987 19.75C29.2902 19.7498 30.5636 20.0527 31.7166 20.6344C32.8696 21.2161 33.87 22.0603 34.6371 23.0992C35.4043 24.1381 35.9169 25.3426 36.1336 26.6157C36.3503 27.8888 36.2651 29.195 35.8848 30.4292C36.2296 31.1929 36.3336 32.0434 36.183 32.8677C36.0325 33.692 35.6345 34.4508 35.042 35.0433C34.4495 35.6358 33.6906 36.0338 32.8664 36.1843C32.0421 36.3349 31.1916 36.2309 30.4279 35.8861C28.994 36.3284 27.4667 36.3713 26.0103 36.0101C24.5538 35.6489 23.2235 34.8973 22.1625 33.8363C21.1014 32.7753 20.3499 31.4449 19.9887 29.9885C19.6275 28.5321 19.6703 27.0047 20.1126 25.5709C19.7676 24.8072 19.6633 23.9565 19.8138 23.132C19.9642 22.3076 20.3622 21.5485 20.9547 20.9559C21.5472 20.3632 22.3062 19.9651 23.1306 19.8146C23.9551 19.664 24.8058 19.7681 25.5696 20.113C26.3566 19.8713 27.1754 19.749 27.9987 19.75V19.75Z" stroke="#3F3A64" stroke-width="2" stroke-linecap="round" stroke-linejoin="round"/>
<path d="M24.332 30.2916C24.7904 32.125 26.4935 32.5833 27.9987 32.5833C30.6616 32.5833 31.6654 31.4952 31.6654 30.2916C31.6654 28.9139 29.8989 28 27.9987 28C26.0984 28 24.332 27.086 24.332 25.7083C24.332 24.5047 25.3358 23.4166 27.9987 23.4166C29.5039 23.4166 31.207 23.875 31.6654 25.7083" stroke="#20AD96" stroke-width="2" stroke-linecap="round" stroke-linejoin="round"/>
</g>
<rect x="4" y="4" width="48" height="48" rx="24" stroke="#FAF8F6" stroke-width="8"/>
<defs>
<clipPath id="clip0_42_5693">
<rect width="22" height="22" fill="white" transform="translate(17 17)"/>
</clipPath>
</defs>
</svg>
