<svg width="56" height="56" viewBox="0 0 56 56" fill="none" xmlns="http://www.w3.org/2000/svg">
<rect x="4" y="4" width="48" height="48" rx="24" fill="#FAF8F6"/>
<g clip-path="url(#clip0_42_5883)">
<path d="M26.167 21.5833C26.167 21.0971 26.3601 20.6308 26.704 20.287C27.0478 19.9432 27.5141 19.75 28.0003 19.75C28.4866 19.75 28.9529 19.9432 29.2967 20.287C29.6405 20.6308 29.8337 21.0971 29.8337 21.5833C30.8864 22.0811 31.7838 22.856 32.4297 23.8249C33.0756 24.7938 33.4457 25.9202 33.5003 27.0833V29.8333C33.5693 30.4032 33.7711 30.949 34.0896 31.4266C34.408 31.9043 34.8341 32.3005 35.3337 32.5833H20.667C21.1665 32.3005 21.5927 31.9043 21.9111 31.4266C22.2295 30.949 22.4313 30.4032 22.5003 29.8333V27.0833C22.5549 25.9202 22.925 24.7938 23.5709 23.8249C24.2169 22.856 25.1143 22.0811 26.167 21.5833" stroke="#333461" stroke-width="2" stroke-linecap="round" stroke-linejoin="round"/>
<path d="M25.25 32.5833V33.5C25.25 34.2293 25.5397 34.9288 26.0555 35.4445C26.5712 35.9602 27.2707 36.25 28 36.25C28.7293 36.25 29.4288 35.9602 29.9445 35.4445C30.4603 34.9288 30.75 34.2293 30.75 33.5V32.5833" stroke="#333461" stroke-width="2" stroke-linecap="round" stroke-linejoin="round"/>
<path d="M36.2496 23.1664C35.6484 21.8586 34.7753 20.6939 33.6885 19.75" stroke="#20AD96" stroke-width="2" stroke-linecap="round" stroke-linejoin="round"/>
<path d="M19.75 23.1664C20.3507 21.8587 21.2232 20.6941 22.3093 19.75" stroke="#20AD96" stroke-width="2" stroke-linecap="round" stroke-linejoin="round"/>
</g>
<rect x="4" y="4" width="48" height="48" rx="24" stroke="#FAF8F6" stroke-width="8"/>
<defs>
<clipPath id="clip0_42_5883">
<rect width="22" height="22" fill="white" transform="translate(17 17)"/>
</clipPath>
</defs>
</svg>
