<svg width="184" height="48" viewBox="0 0 184 48" fill="none" xmlns="http://www.w3.org/2000/svg">
<path d="M16.2141 33.4287C24.8929 33.4287 31.9284 26.3932 31.9284 17.7144C31.9284 16.7308 31.8381 15.7683 31.6652 14.8348C30.7316 14.6619 29.7692 14.5715 28.7856 14.5715C20.1068 14.5715 13.0713 21.6071 13.0713 30.2858C13.0713 31.2694 13.1617 32.2319 13.3345 33.1654C14.2681 33.3383 15.2306 33.4287 16.2141 33.4287Z" fill="#667085"/>
<path fill-rule="evenodd" clip-rule="evenodd" d="M13.3347 33.1653C6.03118 31.8127 0.5 25.4095 0.5 17.7143C0.5 9.03553 7.53553 2 16.2143 2C23.9095 2 30.3128 7.53118 31.6653 14.8347C30.7318 14.6618 29.7693 14.5714 28.7857 14.5714C20.107 14.5714 13.0714 21.607 13.0714 30.2857C13.0714 31.2693 13.1618 32.2318 13.3347 33.1653Z" fill="#667085"/>
<path fill-rule="evenodd" clip-rule="evenodd" d="M16.2146 33.4286C24.8933 33.4286 31.9289 26.3931 31.9289 17.7143C31.9289 16.7307 31.8385 15.7682 31.6656 14.8347C38.9691 16.1873 44.5003 22.5906 44.5003 30.2858C44.5003 38.9645 37.4648 46 28.786 46C21.0908 46 14.6875 40.4689 13.335 33.1654C14.2685 33.3382 15.231 33.4286 16.2146 33.4286Z" fill="#98A2B3"/>
<path d="M74.7284 28.9039C74.1684 30.7146 73.1884 32.0679 71.7884 32.9639C70.3884 33.8413 68.755 34.2799 66.8884 34.2799C65.059 34.2799 63.4724 33.8973 62.1284 33.1319C60.803 32.3666 59.7764 31.2746 59.0484 29.8559C58.339 28.4373 57.9844 26.7386 57.9844 24.7599C57.9844 22.7813 58.3484 21.0826 59.0764 19.6639C59.8044 18.2453 60.831 17.1533 62.1564 16.3879C63.4817 15.6226 65.0404 15.2399 66.8324 15.2399C68.7177 15.2399 70.3324 15.6413 71.6764 16.4439C73.039 17.2279 73.9724 18.4226 74.4764 20.0279L70.9764 21.5119C70.659 20.3919 70.1737 19.5986 69.5204 19.1319C68.867 18.6466 68.027 18.4039 67.0004 18.4039C65.4697 18.4039 64.247 18.9546 63.3324 20.0559C62.4364 21.1386 61.9884 22.7066 61.9884 24.7599C61.9884 26.7946 62.4177 28.3626 63.2764 29.4639C64.135 30.5653 65.3764 31.1159 67.0004 31.1159C68.0084 31.1159 68.8764 30.8453 69.6044 30.3039C70.351 29.7626 70.8737 28.9413 71.1724 27.8399L74.7284 28.9039Z" fill="#475467"/>
<path d="M79.5617 17.9839C77.975 17.9839 77.1817 17.3026 77.1817 15.9399C77.1817 14.5586 77.975 13.8679 79.5617 13.8679C81.1483 13.8679 81.9417 14.5586 81.9417 15.9399C81.9417 17.3026 81.1483 17.9839 79.5617 17.9839ZM81.4657 19.9999V33.9999H77.6297V19.9999H81.4657Z" fill="#475467"/>
<path d="M85.532 33.9999V19.9999H88.864L89.116 22.7439C89.4707 21.7919 90.0027 21.0546 90.712 20.5319C91.44 19.9906 92.3547 19.7199 93.456 19.7199C94.1093 19.7199 94.6133 19.8226 94.968 20.0279L94.52 23.2479C94.3333 23.1919 94.1 23.1453 93.82 23.1079C93.5587 23.0519 93.2133 23.0239 92.784 23.0239C92.2053 23.0239 91.6547 23.1639 91.132 23.4439C90.628 23.7053 90.208 24.1159 89.872 24.6759C89.536 25.2173 89.368 25.9079 89.368 26.7479V33.9999H85.532Z" fill="#475467"/>
<path d="M103.427 19.7199C105.294 19.7199 106.74 20.1213 107.767 20.9239C108.812 21.7266 109.503 22.6973 109.839 23.8359L106.255 25.1239C105.882 23.4253 104.958 22.5759 103.483 22.5759C102.419 22.5759 101.588 22.9493 100.991 23.6959C100.412 24.4426 100.123 25.5533 100.123 27.0279C100.123 28.5213 100.422 29.6319 101.019 30.3599C101.635 31.0693 102.466 31.4239 103.511 31.4239C105.135 31.4239 106.106 30.5933 106.423 28.9319L109.895 30.0519C109.578 31.3026 108.868 32.3199 107.767 33.1039C106.684 33.8879 105.275 34.2799 103.539 34.2799C102.083 34.2799 100.804 33.9906 99.703 33.4119C98.6204 32.8333 97.7804 32.0026 97.1831 30.9199C96.5857 29.8373 96.2871 28.5306 96.2871 26.9999C96.2871 25.4693 96.5857 24.1626 97.1831 23.0799C97.799 21.9973 98.639 21.1666 99.703 20.5879C100.786 20.0093 102.027 19.7199 103.427 19.7199Z" fill="#475467"/>
<path d="M119.26 19.7199C120.66 19.7199 121.901 20.0093 122.984 20.5879C124.066 21.1666 124.906 21.9973 125.504 23.0799C126.12 24.1626 126.428 25.4693 126.428 26.9999C126.428 28.5306 126.12 29.8373 125.504 30.9199C124.906 32.0026 124.066 32.8333 122.984 33.4119C121.901 33.9906 120.66 34.2799 119.26 34.2799C117.841 34.2799 116.59 33.9906 115.508 33.4119C114.444 32.8333 113.604 32.0026 112.988 30.9199C112.39 29.8373 112.092 28.5306 112.092 26.9999C112.092 25.4693 112.39 24.1626 112.988 23.0799C113.604 21.9973 114.444 21.1666 115.508 20.5879C116.59 20.0093 117.841 19.7199 119.26 19.7199ZM119.26 22.5759C118.214 22.5759 117.393 22.9493 116.796 23.6959C116.217 24.4239 115.928 25.5253 115.928 26.9999C115.928 28.4746 116.217 29.5853 116.796 30.3319C117.393 31.0599 118.214 31.4239 119.26 31.4239C120.286 31.4239 121.089 31.0599 121.668 30.3319C122.265 29.5853 122.564 28.4746 122.564 26.9999C122.564 25.5253 122.265 24.4239 121.668 23.6959C121.089 22.9493 120.286 22.5759 119.26 22.5759Z" fill="#475467"/>
<path d="M136.021 19.7199C137.421 19.7199 138.663 20.0093 139.745 20.5879C140.828 21.1666 141.668 21.9973 142.265 23.0799C142.881 24.1626 143.189 25.4693 143.189 26.9999C143.189 28.5306 142.881 29.8373 142.265 30.9199C141.668 32.0026 140.828 32.8333 139.745 33.4119C138.663 33.9906 137.421 34.2799 136.021 34.2799C134.603 34.2799 133.352 33.9906 132.269 33.4119C131.205 32.8333 130.365 32.0026 129.749 30.9199C129.152 29.8373 128.853 28.5306 128.853 26.9999C128.853 25.4693 129.152 24.1626 129.749 23.0799C130.365 21.9973 131.205 21.1666 132.269 20.5879C133.352 20.0093 134.603 19.7199 136.021 19.7199ZM136.021 22.5759C134.976 22.5759 134.155 22.9493 133.557 23.6959C132.979 24.4239 132.689 25.5253 132.689 26.9999C132.689 28.4746 132.979 29.5853 133.557 30.3319C134.155 31.0599 134.976 31.4239 136.021 31.4239C137.048 31.4239 137.851 31.0599 138.429 30.3319C139.027 29.5853 139.325 28.4746 139.325 26.9999C139.325 25.5253 139.027 24.4239 138.429 23.6959C137.851 22.9493 137.048 22.5759 136.021 22.5759Z" fill="#475467"/>
<path d="M150.179 13.8679V29.6879C150.179 30.3413 150.291 30.7986 150.515 31.0599C150.739 31.3213 151.112 31.4519 151.635 31.4519C151.952 31.4519 152.214 31.4333 152.419 31.3959C152.625 31.3586 152.886 31.2839 153.203 31.1719L152.867 33.6919C152.55 33.8786 152.148 34.0186 151.663 34.1119C151.196 34.2239 150.73 34.2799 150.263 34.2799C148.9 34.2799 147.902 33.9533 147.267 33.2999C146.651 32.6279 146.343 31.5639 146.343 30.1079V13.8679H150.179Z" fill="#475467"/>
<path d="M161.837 34.2799C159.634 34.2799 157.87 33.6453 156.545 32.3759C155.219 31.0879 154.557 29.2959 154.557 26.9999C154.557 25.4693 154.855 24.1626 155.453 23.0799C156.05 21.9973 156.881 21.1666 157.945 20.5879C159.027 20.0093 160.259 19.7199 161.641 19.7199C163.059 19.7199 164.263 20.0093 165.253 20.5879C166.242 21.1479 166.998 21.9226 167.521 22.9119C168.043 23.8826 168.305 24.9933 168.305 26.2439C168.305 26.6173 168.295 26.9719 168.277 27.3079C168.258 27.6439 168.23 27.9426 168.193 28.2039H158.309C158.458 29.2866 158.831 30.0986 159.429 30.6399C160.045 31.1626 160.838 31.4239 161.809 31.4239C162.63 31.4239 163.293 31.2653 163.797 30.9479C164.301 30.6306 164.693 30.1919 164.973 29.6319L168.025 30.8079C167.577 31.9093 166.793 32.7679 165.673 33.3839C164.553 33.9813 163.274 34.2799 161.837 34.2799ZM161.613 22.5479C159.802 22.5479 158.71 23.5466 158.337 25.5439H164.637C164.525 24.5733 164.207 23.8359 163.685 23.3319C163.181 22.8093 162.49 22.5479 161.613 22.5479Z" fill="#475467"/>
<path d="M177.155 34.2799C175.737 34.2799 174.439 34.0279 173.263 33.5239C172.106 33.0199 171.163 32.3106 170.435 31.3959L172.647 29.1559C173.095 29.8279 173.693 30.3786 174.439 30.8079C175.186 31.2373 176.073 31.4519 177.099 31.4519C177.827 31.4519 178.406 31.3493 178.835 31.1439C179.283 30.9199 179.507 30.5746 179.507 30.1079C179.507 29.8093 179.405 29.5573 179.199 29.3519C178.994 29.1279 178.583 28.9506 177.967 28.8199L175.503 28.3159C173.879 27.9799 172.722 27.4759 172.031 26.8039C171.359 26.1133 171.023 25.2266 171.023 24.1439C171.023 23.3786 171.247 22.6599 171.695 21.9879C172.162 21.3159 172.853 20.7746 173.767 20.3639C174.682 19.9346 175.821 19.7199 177.183 19.7199C180.021 19.7199 182.055 20.5879 183.287 22.3239L180.991 24.5639C180.581 23.9106 180.039 23.4159 179.367 23.0799C178.714 22.7253 178.023 22.5479 177.295 22.5479C175.653 22.5479 174.831 23.0053 174.831 23.9199C174.831 24.2186 174.962 24.4799 175.223 24.7039C175.485 24.9093 175.961 25.0866 176.651 25.2359L179.507 25.8239C180.889 26.1039 181.878 26.5799 182.475 27.2519C183.073 27.9053 183.371 28.6986 183.371 29.6319C183.371 30.9759 182.83 32.0866 181.747 32.9639C180.683 33.8413 179.153 34.2799 177.155 34.2799Z" fill="#475467"/>
</svg>
