<svg width="56" height="56" viewBox="0 0 56 56" fill="none" xmlns="http://www.w3.org/2000/svg">
<rect x="4" y="4" width="48" height="48" rx="24" fill="white"/>
<g clip-path="url(#clip0_42_6175)">
<path d="M27.9987 19.7502C29.2902 19.7499 30.5636 20.0528 31.7166 20.6345C32.8696 21.2162 33.87 22.0605 34.6371 23.0993C35.4043 24.1382 35.9169 25.3427 36.1336 26.6158C36.3503 27.8889 36.2651 29.1951 35.8848 30.4293C36.2296 31.193 36.3336 32.0436 36.183 32.8678C36.0325 33.6921 35.6345 34.4509 35.042 35.0434C34.4495 35.6359 33.6906 36.0339 32.8664 36.1845C32.0421 36.335 31.1916 36.231 30.4279 35.8862C28.994 36.3285 27.4667 36.3714 26.0103 36.0102C24.5538 35.649 23.2235 34.8975 22.1625 33.8364C21.1014 32.7754 20.3499 31.445 19.9887 29.9886C19.6275 28.5322 19.6703 27.0049 20.1126 25.571C19.7676 24.8073 19.6633 23.9566 19.8138 23.1321C19.9642 22.3077 20.3622 21.5486 20.9547 20.956C21.5472 20.3633 22.3062 19.9652 23.1306 19.8147C23.9551 19.6641 24.8058 19.7682 25.5696 20.1132C26.3566 19.8715 27.1754 19.7491 27.9987 19.7502V19.7502Z" stroke="#3F3A64" stroke-width="2" stroke-linecap="round" stroke-linejoin="round"/>
<path d="M24.332 30.2915C24.7904 32.1248 26.4935 32.5832 27.9987 32.5832C30.6616 32.5832 31.6654 31.4951 31.6654 30.2915C31.6654 28.9138 29.8989 27.9998 27.9987 27.9998C26.0984 27.9998 24.332 27.0859 24.332 25.7082C24.332 24.5046 25.3358 23.4165 27.9987 23.4165C29.5039 23.4165 31.207 23.8748 31.6654 25.7082" stroke="#20AD96" stroke-width="2" stroke-linecap="round" stroke-linejoin="round"/>
</g>
<rect x="4" y="4" width="48" height="48" rx="24" stroke="white" stroke-width="8"/>
<defs>
<clipPath id="clip0_42_6175">
<rect width="22" height="22" fill="white" transform="translate(17 17)"/>
</clipPath>
</defs>
</svg>
